TITLE ""
FILE "1Q_t_1601-1609.mp3" MP3
  TRACK 01 AUDIO
    TITLE "1Q_t_1601-1609_01"
    INDEX 01 00:00:00
  TRACK 02 AUDIO
    TITLE "1Q_t_1601-1609_02"
    INDEX 01 00:00:08
  TRACK 03 AUDIO
    TITLE "1Q_t_1601-1609_03"
    INDEX 01 00:01:70
  TRACK 04 AUDIO
    TITLE "1Q_t_1601-1609_04"
    INDEX 01 00:02:43
  TRACK 05 AUDIO
    TITLE "1Q_t_1601-1609_05"
    INDEX 01 00:03:50
  TRACK 06 AUDIO
    TITLE "1Q_t_1601-1609_06"
    INDEX 01 00:04:18
  TRACK 07 AUDIO
    TITLE "1Q_t_1601-1609_07"
    INDEX 01 00:05:39
  TRACK 08 AUDIO
    TITLE "1Q_t_1601-1609_08"
    INDEX 01 00:05:51
  TRACK 09 AUDIO
    TITLE "1Q_t_1601-1609_09"
    INDEX 01 00:07:10
  TRACK 10 AUDIO
    TITLE "1Q_t_1601-1609_10"
    INDEX 01 00:07:16
  TRACK 11 AUDIO
    TITLE "1Q_t_1601-1609_11"
    INDEX 01 00:12:08
  TRACK 12 AUDIO
    TITLE "1Q_t_1601-1609_12"
    INDEX 01 00:12:53
  TRACK 13 AUDIO
    TITLE "1Q_t_1601-1609_13"
    INDEX 01 00:13:70
  TRACK 14 AUDIO
    TITLE "1Q_t_1601-1609_14"
    INDEX 01 00:14:07
  TRACK 15 AUDIO
    TITLE "1Q_t_1601-1609_15"
    INDEX 01 00:15:49
  TRACK 16 AUDIO
    TITLE "1Q_t_1601-1609_16"
    INDEX 01 00:15:55
  TRACK 17 AUDIO
    TITLE "1Q_t_1601-1609_17"
    INDEX 01 00:21:07
  TRACK 18 AUDIO
    TITLE "1Q_t_1601-1609_18"
    INDEX 01 00:21:52
  TRACK 19 AUDIO
    TITLE "1Q_t_1601-1609_19"
    INDEX 01 00:22:67
  TRACK 20 AUDIO
    TITLE "1Q_t_1601-1609_20"
    INDEX 01 00:23:00
  TRACK 21 AUDIO
    TITLE "1Q_t_1601-1609_21"
    INDEX 01 00:24:48
  TRACK 22 AUDIO
    TITLE "1Q_t_1601-1609_22"
    INDEX 01 00:24:54
  TRACK 23 AUDIO
    TITLE "1Q_t_1601-1609_23"
    INDEX 01 00:28:65
  TRACK 24 AUDIO
    TITLE "1Q_t_1601-1609_24"
    INDEX 01 00:29:35
  TRACK 25 AUDIO
    TITLE "1Q_t_1601-1609_25"
    INDEX 01 00:30:31
  TRACK 26 AUDIO
    TITLE "1Q_t_1601-1609_26"
    INDEX 01 00:30:41
  TRACK 27 AUDIO
    TITLE "1Q_t_1601-1609_27"
    INDEX 01 00:33:31
  TRACK 28 AUDIO
    TITLE "1Q_t_1601-1609_28"
    INDEX 01 00:33:37
  TRACK 29 AUDIO
    TITLE "1Q_t_1601-1609_29"
    INDEX 01 00:37:49
  TRACK 30 AUDIO
    TITLE "1Q_t_1601-1609_30"
    INDEX 01 00:38:19
  TRACK 31 AUDIO
    TITLE "1Q_t_1601-1609_31"
    INDEX 01 00:39:38
  TRACK 32 AUDIO
    TITLE "1Q_t_1601-1609_32"
    INDEX 01 00:39:46
  TRACK 33 AUDIO
    TITLE "1Q_t_1601-1609_33"
    INDEX 01 00:40:73
  TRACK 34 AUDIO
    TITLE "1Q_t_1601-1609_34"
    INDEX 01 00:41:03
  TRACK 35 AUDIO
    TITLE "1Q_t_1601-1609_35"
    INDEX 01 00:45:01
  TRACK 36 AUDIO
    TITLE "1Q_t_1601-1609_36"
    INDEX 01 00:45:46
  TRACK 37 AUDIO
    TITLE "1Q_t_1601-1609_37"
    INDEX 01 00:46:63
  TRACK 38 AUDIO
    TITLE "1Q_t_1601-1609_38"
    INDEX 01 00:46:73
  TRACK 39 AUDIO
    TITLE "1Q_t_1601-1609_39"
    INDEX 01 00:50:02
  TRACK 40 AUDIO
    TITLE "1Q_t_1601-1609_40"
    INDEX 01 00:50:08
  TRACK 41 AUDIO
    TITLE "1Q_t_1601-1609_41"
    INDEX 01 00:55:09
  TRACK 42 AUDIO
    TITLE "1Q_t_1601-1609_42"
    INDEX 01 00:55:54
  TRACK 43 AUDIO
    TITLE "1Q_t_1601-1609_43"
    INDEX 01 00:56:73
  TRACK 44 AUDIO
    TITLE "1Q_t_1601-1609_44"
    INDEX 01 00:57:06
  TRACK 45 AUDIO
    TITLE "1Q_t_1601-1609_45"
    INDEX 01 00:59:13
  TRACK 46 AUDIO
    TITLE "1Q_t_1601-1609_46"
    INDEX 01 00:59:19
  TRACK 47 AUDIO
    TITLE "1Q_t_1601-1609_47"
    INDEX 01 01:02:70
  TRACK 48 AUDIO
    TITLE "1Q_t_1601-1609_48"
    INDEX 01 01:03:38
  TRACK 49 AUDIO
    TITLE "1Q_t_1601-1609_49"
    INDEX 01 01:04:55
  TRACK 50 AUDIO
    TITLE "1Q_t_1601-1609_50"
    INDEX 01 01:04:63
  TRACK 51 AUDIO
    TITLE "1Q_t_1601-1609_51"
    INDEX 01 01:06:66
  TRACK 52 AUDIO
    TITLE "1Q_t_1601-1609_52"
    INDEX 01 01:06:72
  TRACK 53 AUDIO
    TITLE "1Q_t_1601-1609_53"
    INDEX 01 01:11:69
  TRACK 54 AUDIO
    TITLE "1Q_t_1601-1609_54"
    INDEX 01 01:12:43
  TRACK 55 AUDIO
    TITLE "1Q_t_1601-1609_55"
    INDEX 01 01:13:54
  TRACK 56 AUDIO
    TITLE "1Q_t_1601-1609_56"
    INDEX 01 01:13:68
  TRACK 57 AUDIO
    TITLE "1Q_t_1601-1609_57"
    INDEX 01 01:17:13
  TRACK 58 AUDIO
    TITLE "1Q_t_1601-1609_58"
    INDEX 01 01:17:21
  TRACK 59 AUDIO
    TITLE "1Q_t_1601-1609_59"
    INDEX 01 01:21:22
